<svg id="visual" viewBox="0 0 900 600" width="900" height="600" xmlns="http://www.w3.org/2000/svg" xmlns:xlink="http://www.w3.org/1999/xlink" version="1.1"><g stroke-width="1" stroke-linejoin="bevel"><path d="M456 303L490.3 251L438 256Z" fill="#180a19" stroke="#180a19"></path><path d="M468 185L404.7 243L438 256Z" fill="#1c0a1e" stroke="#1c0a1e"></path><path d="M438 256L375.7 322L456 303Z" fill="#1e0924" stroke="#1e0924"></path><path d="M456 303L534.3 298L490.3 251Z" fill="#1e0924" stroke="#1e0924"></path><path d="M375.7 322L431 350L456 303Z" fill="#180a19" stroke="#180a19"></path><path d="M456 303L509.3 379L534.3 298Z" fill="#1e0924" stroke="#1e0924"></path><path d="M516.3 195L468 185L490.3 251Z" fill="#180a19" stroke="#180a19"></path><path d="M490.3 251L468 185L438 256Z" fill="#1c0a1e" stroke="#1c0a1e"></path><path d="M583.6 262L516.3 195L490.3 251Z" fill="#1e0924" stroke="#1e0924"></path><path d="M404.7 243L375.7 322L438 256Z" fill="#270344" stroke="#270344"></path><path d="M468 185L382.7 199L404.7 243Z" fill="#230730" stroke="#230730"></path><path d="M404.7 243L330.4 243L375.7 322Z" fill="#24005a" stroke="#24005a"></path><path d="M375.7 322L385.7 350L431 350Z" fill="#21082a" stroke="#21082a"></path><path d="M529.3 400L509.3 379L447 416Z" fill="#21082a" stroke="#21082a"></path><path d="M431 350L509.3 379L456 303Z" fill="#1e0924" stroke="#1e0924"></path><path d="M581.6 301L583.6 262L534.3 298Z" fill="#24005a" stroke="#24005a"></path><path d="M534.3 298L583.6 262L490.3 251Z" fill="#230730" stroke="#230730"></path><path d="M565.6 377L581.6 301L534.3 298Z" fill="#1c0a1e" stroke="#1c0a1e"></path><path d="M583.6 262L575.6 196L516.3 195Z" fill="#1e0924" stroke="#1e0924"></path><path d="M516.3 195L508.3 131L468 185Z" fill="#24005a" stroke="#24005a"></path><path d="M382.7 199L330.4 243L404.7 243Z" fill="#230730" stroke="#230730"></path><path d="M322.4 375L390.7 412L385.7 350Z" fill="#270344" stroke="#270344"></path><path d="M447 416L509.3 379L431 350Z" fill="#27024b" stroke="#27024b"></path><path d="M509.3 379L565.6 377L534.3 298Z" fill="#21082a" stroke="#21082a"></path><path d="M529.3 400L565.6 377L509.3 379Z" fill="#24005a" stroke="#24005a"></path><path d="M390.7 412L447 416L431 350Z" fill="#180a19" stroke="#180a19"></path><path d="M569.6 144L508.3 131L516.3 195Z" fill="#1c0a1e" stroke="#1c0a1e"></path><path d="M468 185L407.7 128L382.7 199Z" fill="#27024b" stroke="#27024b"></path><path d="M451 94L407.7 128L468 185Z" fill="#180a19" stroke="#180a19"></path><path d="M382.7 199L306.4 155L330.4 243Z" fill="#24005a" stroke="#24005a"></path><path d="M581.6 301L620.9 287L583.6 262Z" fill="#180a19" stroke="#180a19"></path><path d="M583.6 262L651.9 223L575.6 196Z" fill="#260152" stroke="#260152"></path><path d="M635.9 337L620.9 287L581.6 301Z" fill="#270344" stroke="#270344"></path><path d="M385.7 350L390.7 412L431 350Z" fill="#270344" stroke="#270344"></path><path d="M322.4 375L385.7 350L375.7 322Z" fill="#1c0a1e" stroke="#1c0a1e"></path><path d="M330.4 243L310.4 304L375.7 322Z" fill="#26053d" stroke="#26053d"></path><path d="M655.9 184L569.6 144L575.6 196Z" fill="#1c0a1e" stroke="#1c0a1e"></path><path d="M575.6 196L569.6 144L516.3 195Z" fill="#1c0a1e" stroke="#1c0a1e"></path><path d="M310.4 304L322.4 375L375.7 322Z" fill="#21082a" stroke="#21082a"></path><path d="M508.3 131L451 94L468 185Z" fill="#1c0a1e" stroke="#1c0a1e"></path><path d="M435 68L451 94L501.3 68Z" fill="#1c0a1e" stroke="#1c0a1e"></path><path d="M666.9 422L635.9 337L565.6 377Z" fill="#260152" stroke="#260152"></path><path d="M565.6 377L635.9 337L581.6 301Z" fill="#230730" stroke="#230730"></path><path d="M330.4 243L280.1 285L310.4 304Z" fill="#270344" stroke="#270344"></path><path d="M310.4 304L234.1 354L322.4 375Z" fill="#260152" stroke="#260152"></path><path d="M269.1 230L280.1 285L330.4 243Z" fill="#230730" stroke="#230730"></path><path d="M683.1 324L651.9 223L620.9 287Z" fill="#230730" stroke="#230730"></path><path d="M620.9 287L651.9 223L583.6 262Z" fill="#27024b" stroke="#27024b"></path><path d="M255.1 402L342.4 424L322.4 375Z" fill="#270344" stroke="#270344"></path><path d="M322.4 375L342.4 424L390.7 412Z" fill="#180a19" stroke="#180a19"></path><path d="M434 495L519.3 466L447 416Z" fill="#270344" stroke="#270344"></path><path d="M320.4 136L382.7 199L407.7 128Z" fill="#26053d" stroke="#26053d"></path><path d="M320.4 136L306.4 155L382.7 199Z" fill="#260152" stroke="#260152"></path><path d="M397.7 34L320.4 136L407.7 128Z" fill="#1c0a1e" stroke="#1c0a1e"></path><path d="M434 495L447 416L390.7 412Z" fill="#26053d" stroke="#26053d"></path><path d="M447 416L519.3 466L529.3 400Z" fill="#26053d" stroke="#26053d"></path><path d="M529.3 400L575.6 442L565.6 377Z" fill="#260152" stroke="#260152"></path><path d="M306.4 155L269.1 230L330.4 243Z" fill="#180a19" stroke="#180a19"></path><path d="M519.3 466L575.6 442L529.3 400Z" fill="#26053d" stroke="#26053d"></path><path d="M501.3 68L451 94L508.3 131Z" fill="#180a19" stroke="#180a19"></path><path d="M451 94L435 68L407.7 128Z" fill="#1e0924" stroke="#1e0924"></path><path d="M588.6 68L508.3 131L569.6 144Z" fill="#1c0a1e" stroke="#1c0a1e"></path><path d="M588.6 68L501.3 68L508.3 131Z" fill="#24005a" stroke="#24005a"></path><path d="M651.9 223L655.9 184L575.6 196Z" fill="#1e0924" stroke="#1e0924"></path><path d="M655.9 184L617.9 115L569.6 144Z" fill="#24005a" stroke="#24005a"></path><path d="M519.3 466L569.6 466L575.6 442Z" fill="#1c0a1e" stroke="#1c0a1e"></path><path d="M720.1 371L683.1 324L635.9 337Z" fill="#1e0924" stroke="#1e0924"></path><path d="M666.9 422L565.6 377L575.6 442Z" fill="#27024b" stroke="#27024b"></path><path d="M635.9 337L683.1 324L620.9 287Z" fill="#250636" stroke="#250636"></path><path d="M651.9 223L706.1 218L655.9 184Z" fill="#270344" stroke="#270344"></path><path d="M259.1 94L265.1 172L306.4 155Z" fill="#250636" stroke="#250636"></path><path d="M306.4 155L265.1 172L269.1 230Z" fill="#270344" stroke="#270344"></path><path d="M394.7 495L434 495L390.7 412Z" fill="#180a19" stroke="#180a19"></path><path d="M519.3 466L569.6 529L569.6 466Z" fill="#27024b" stroke="#27024b"></path><path d="M342.4 424L394.7 495L390.7 412Z" fill="#260152" stroke="#260152"></path><path d="M617.9 115L588.6 68L569.6 144Z" fill="#1c0a1e" stroke="#1c0a1e"></path><path d="M410.7 522L467 514L434 495Z" fill="#1c0a1e" stroke="#1c0a1e"></path><path d="M434 495L467 514L519.3 466Z" fill="#230730" stroke="#230730"></path><path d="M192.9 303L234.1 354L280.1 285Z" fill="#26053d" stroke="#26053d"></path><path d="M280.1 285L234.1 354L310.4 304Z" fill="#270344" stroke="#270344"></path><path d="M342.4 424L301.4 504L394.7 495Z" fill="#24005a" stroke="#24005a"></path><path d="M196.9 243L280.1 285L269.1 230Z" fill="#260152" stroke="#260152"></path><path d="M683.1 324L706.1 218L651.9 223Z" fill="#260152" stroke="#260152"></path><path d="M711.1 120L627.9 75L617.9 115Z" fill="#250636" stroke="#250636"></path><path d="M617.9 115L627.9 75L588.6 68Z" fill="#230730" stroke="#230730"></path><path d="M234.1 354L255.1 402L322.4 375Z" fill="#24005a" stroke="#24005a"></path><path d="M440 0L397.7 34L435 68Z" fill="#24005a" stroke="#24005a"></path><path d="M435 68L397.7 34L407.7 128Z" fill="#26053d" stroke="#26053d"></path><path d="M320.4 136L259.1 94L306.4 155Z" fill="#21082a" stroke="#21082a"></path><path d="M440 0L435 68L501.3 68Z" fill="#24005a" stroke="#24005a"></path><path d="M644.9 505L666.9 422L575.6 442Z" fill="#1e0924" stroke="#1e0924"></path><path d="M683.1 324L745.4 248L706.1 218Z" fill="#250636" stroke="#250636"></path><path d="M644.9 505L575.6 442L569.6 466Z" fill="#24005a" stroke="#24005a"></path><path d="M711.1 120L617.9 115L655.9 184Z" fill="#24005a" stroke="#24005a"></path><path d="M300.4 545L410.7 522L394.7 495Z" fill="#26053d" stroke="#26053d"></path><path d="M394.7 495L410.7 522L434 495Z" fill="#24005a" stroke="#24005a"></path><path d="M706.1 218L705.1 169L655.9 184Z" fill="#270344" stroke="#270344"></path><path d="M186.9 170L196.9 243L265.1 172Z" fill="#180a19" stroke="#180a19"></path><path d="M265.1 172L196.9 243L269.1 230Z" fill="#180a19" stroke="#180a19"></path><path d="M666.9 422L720.1 371L635.9 337Z" fill="#1e0924" stroke="#1e0924"></path><path d="M706.1 218L792.4 188L705.1 169Z" fill="#180a19" stroke="#180a19"></path><path d="M295.4 50L259.1 94L320.4 136Z" fill="#250636" stroke="#250636"></path><path d="M503.3 0L440 0L501.3 68Z" fill="#180a19" stroke="#180a19"></path><path d="M397.7 34L295.4 50L320.4 136Z" fill="#260152" stroke="#260152"></path><path d="M503.3 0L501.3 68L588.6 68Z" fill="#21082a" stroke="#21082a"></path><path d="M601.6 0L503.3 0L588.6 68Z" fill="#24005a" stroke="#24005a"></path><path d="M196.9 243L192.9 303L280.1 285Z" fill="#1e0924" stroke="#1e0924"></path><path d="M234.1 354L217.9 444L255.1 402Z" fill="#26053d" stroke="#26053d"></path><path d="M530.3 553L519.3 466L467 514Z" fill="#1e0924" stroke="#1e0924"></path><path d="M530.3 553L569.6 529L519.3 466Z" fill="#26053d" stroke="#26053d"></path><path d="M666.9 422L714.1 422L720.1 371Z" fill="#27024b" stroke="#27024b"></path><path d="M364.7 0L295.4 50L397.7 34Z" fill="#1e0924" stroke="#1e0924"></path><path d="M760.4 350L745.4 248L683.1 324Z" fill="#27024b" stroke="#27024b"></path><path d="M247.1 489L301.4 504L255.1 402Z" fill="#270344" stroke="#270344"></path><path d="M255.1 402L301.4 504L342.4 424Z" fill="#260152" stroke="#260152"></path><path d="M471 600L467 514L410.7 522Z" fill="#21082a" stroke="#21082a"></path><path d="M471 600L530.3 553L467 514Z" fill="#180a19" stroke="#180a19"></path><path d="M767.4 130L711.1 120L705.1 169Z" fill="#21082a" stroke="#21082a"></path><path d="M705.1 169L711.1 120L655.9 184Z" fill="#260152" stroke="#260152"></path><path d="M627.9 75L601.6 0L588.6 68Z" fill="#250636" stroke="#250636"></path><path d="M707.1 482L714.1 422L666.9 422Z" fill="#1e0924" stroke="#1e0924"></path><path d="M720.1 371L760.4 350L683.1 324Z" fill="#230730" stroke="#230730"></path><path d="M440 0L364.7 0L397.7 34Z" fill="#24005a" stroke="#24005a"></path><path d="M180.9 52L216.9 117L259.1 94Z" fill="#1e0924" stroke="#1e0924"></path><path d="M259.1 94L216.9 117L265.1 172Z" fill="#1e0924" stroke="#1e0924"></path><path d="M616.9 545L644.9 505L569.6 529Z" fill="#180a19" stroke="#180a19"></path><path d="M569.6 529L644.9 505L569.6 466Z" fill="#27024b" stroke="#27024b"></path><path d="M216.9 117L186.9 170L265.1 172Z" fill="#260152" stroke="#260152"></path><path d="M152.6 279L174.9 343L192.9 303Z" fill="#180a19" stroke="#180a19"></path><path d="M152.6 279L192.9 303L196.9 243Z" fill="#27024b" stroke="#27024b"></path><path d="M192.9 303L174.9 343L234.1 354Z" fill="#180a19" stroke="#180a19"></path><path d="M174.9 343L217.9 444L234.1 354Z" fill="#24005a" stroke="#24005a"></path><path d="M645.9 0L601.6 0L627.9 75Z" fill="#1e0924" stroke="#1e0924"></path><path d="M779.4 402L760.4 350L720.1 371Z" fill="#180a19" stroke="#180a19"></path><path d="M364.7 0L328.4 0L295.4 50Z" fill="#260152" stroke="#260152"></path><path d="M295.4 50L259.1 44L259.1 94Z" fill="#180a19" stroke="#180a19"></path><path d="M217.9 444L247.1 489L255.1 402Z" fill="#270344" stroke="#270344"></path><path d="M254.1 0L259.1 44L295.4 50Z" fill="#24005a" stroke="#24005a"></path><path d="M559.6 600L616.9 545L569.6 529Z" fill="#260152" stroke="#260152"></path><path d="M644.9 505L707.1 482L666.9 422Z" fill="#21082a" stroke="#21082a"></path><path d="M136.6 226L152.6 279L196.9 243Z" fill="#24005a" stroke="#24005a"></path><path d="M255.1 523L300.4 545L301.4 504Z" fill="#1c0a1e" stroke="#1c0a1e"></path><path d="M301.4 504L300.4 545L394.7 495Z" fill="#27024b" stroke="#27024b"></path><path d="M684.1 520L707.1 482L644.9 505Z" fill="#250636" stroke="#250636"></path><path d="M714.1 422L779.4 402L720.1 371Z" fill="#1e0924" stroke="#1e0924"></path><path d="M760.4 350L787.4 276L745.4 248Z" fill="#1c0a1e" stroke="#1c0a1e"></path><path d="M792.4 188L767.4 130L705.1 169Z" fill="#27024b" stroke="#27024b"></path><path d="M688.1 0L645.9 0L627.9 75Z" fill="#1e0924" stroke="#1e0924"></path><path d="M205.9 492L255.1 523L247.1 489Z" fill="#180a19" stroke="#180a19"></path><path d="M247.1 489L255.1 523L301.4 504Z" fill="#1e0924" stroke="#1e0924"></path><path d="M398.7 600L471 600L410.7 522Z" fill="#250636" stroke="#250636"></path><path d="M530.3 553L559.6 600L569.6 529Z" fill="#250636" stroke="#250636"></path><path d="M126.6 129L147.6 191L186.9 170Z" fill="#230730" stroke="#230730"></path><path d="M186.9 170L147.6 191L196.9 243Z" fill="#250636" stroke="#250636"></path><path d="M126.6 129L186.9 170L216.9 117Z" fill="#270344" stroke="#270344"></path><path d="M653.9 600L684.1 520L616.9 545Z" fill="#1c0a1e" stroke="#1c0a1e"></path><path d="M616.9 545L684.1 520L644.9 505Z" fill="#230730" stroke="#230730"></path><path d="M471 600L511.3 600L530.3 553Z" fill="#1c0a1e" stroke="#1c0a1e"></path><path d="M147.6 191L136.6 226L196.9 243Z" fill="#21082a" stroke="#21082a"></path><path d="M767.4 130L725.1 63L711.1 120Z" fill="#180a19" stroke="#180a19"></path><path d="M711.1 120L725.1 63L627.9 75Z" fill="#270344" stroke="#270344"></path><path d="M792.4 188L706.1 218L745.4 248Z" fill="#27024b" stroke="#27024b"></path><path d="M298.4 600L398.7 600L300.4 545Z" fill="#27024b" stroke="#27024b"></path><path d="M300.4 545L398.7 600L410.7 522Z" fill="#260152" stroke="#260152"></path><path d="M787.4 276L792.4 188L745.4 248Z" fill="#1e0924" stroke="#1e0924"></path><path d="M780.4 455L779.4 402L714.1 422Z" fill="#230730" stroke="#230730"></path><path d="M838.7 307L828.7 261L787.4 276Z" fill="#27024b" stroke="#27024b"></path><path d="M780.4 455L714.1 422L707.1 482Z" fill="#1e0924" stroke="#1e0924"></path><path d="M217.9 444L205.9 492L247.1 489Z" fill="#250636" stroke="#250636"></path><path d="M130.6 465L205.9 492L217.9 444Z" fill="#24005a" stroke="#24005a"></path><path d="M107.6 431L217.9 444L174.9 343Z" fill="#24005a" stroke="#24005a"></path><path d="M108.6 373L174.9 343L152.6 279Z" fill="#27024b" stroke="#27024b"></path><path d="M511.3 600L559.6 600L530.3 553Z" fill="#24005a" stroke="#24005a"></path><path d="M328.4 0L254.1 0L295.4 50Z" fill="#1e0924" stroke="#1e0924"></path><path d="M259.1 44L180.9 52L259.1 94Z" fill="#180a19" stroke="#180a19"></path><path d="M725.1 63L688.1 0L627.9 75Z" fill="#270344" stroke="#270344"></path><path d="M751.4 0L688.1 0L725.1 63Z" fill="#260152" stroke="#260152"></path><path d="M200.9 0L180.9 52L259.1 44Z" fill="#27024b" stroke="#27024b"></path><path d="M82.3 176L80.3 219L136.6 226Z" fill="#1c0a1e" stroke="#1c0a1e"></path><path d="M792.4 188L819.7 100L767.4 130Z" fill="#260152" stroke="#260152"></path><path d="M767.4 130L763.4 55L725.1 63Z" fill="#270344" stroke="#270344"></path><path d="M787.4 276L820.7 199L792.4 188Z" fill="#1c0a1e" stroke="#1c0a1e"></path><path d="M828.7 261L820.7 199L787.4 276Z" fill="#24005a" stroke="#24005a"></path><path d="M838.7 307L787.4 276L760.4 350Z" fill="#180a19" stroke="#180a19"></path><path d="M789.4 547L780.4 455L707.1 482Z" fill="#24005a" stroke="#24005a"></path><path d="M854.7 346L838.7 307L760.4 350Z" fill="#24005a" stroke="#24005a"></path><path d="M240.1 600L298.4 600L300.4 545Z" fill="#260152" stroke="#260152"></path><path d="M240.1 600L300.4 545L255.1 523Z" fill="#180a19" stroke="#180a19"></path><path d="M180.9 52L126.6 129L216.9 117Z" fill="#21082a" stroke="#21082a"></path><path d="M819.7 100L763.4 55L767.4 130Z" fill="#260152" stroke="#260152"></path><path d="M80.3 219L152.6 279L136.6 226Z" fill="#180a19" stroke="#180a19"></path><path d="M38.3 314L108.6 373L152.6 279Z" fill="#1c0a1e" stroke="#1c0a1e"></path><path d="M817.7 404L760.4 350L779.4 402Z" fill="#260152" stroke="#260152"></path><path d="M828.7 261L900 228L820.7 199Z" fill="#1e0924" stroke="#1e0924"></path><path d="M780.4 455L817.7 404L779.4 402Z" fill="#250636" stroke="#250636"></path><path d="M136.6 523L189.9 527L205.9 492Z" fill="#26053d" stroke="#26053d"></path><path d="M205.9 492L189.9 527L255.1 523Z" fill="#21082a" stroke="#21082a"></path><path d="M559.6 600L653.9 600L616.9 545Z" fill="#21082a" stroke="#21082a"></path><path d="M684.1 520L789.4 547L707.1 482Z" fill="#270344" stroke="#270344"></path><path d="M254.1 0L200.9 0L259.1 44Z" fill="#21082a" stroke="#21082a"></path><path d="M180.9 52L109.6 74L126.6 129Z" fill="#250636" stroke="#250636"></path><path d="M107.6 431L130.6 465L217.9 444Z" fill="#180a19" stroke="#180a19"></path><path d="M82.3 176L136.6 226L147.6 191Z" fill="#1e0924" stroke="#1e0924"></path><path d="M83.3 407L107.6 431L108.6 373Z" fill="#180a19" stroke="#180a19"></path><path d="M108.6 373L107.6 431L174.9 343Z" fill="#1c0a1e" stroke="#1c0a1e"></path><path d="M900 105L819.7 100L820.7 199Z" fill="#270344" stroke="#270344"></path><path d="M820.7 199L819.7 100L792.4 188Z" fill="#24005a" stroke="#24005a"></path><path d="M763.4 55L751.4 0L725.1 63Z" fill="#27024b" stroke="#27024b"></path><path d="M820.7 70L751.4 0L763.4 55Z" fill="#27024b" stroke="#27024b"></path><path d="M126.6 129L82.3 176L147.6 191Z" fill="#27024b" stroke="#27024b"></path><path d="M49.3 143L82.3 176L126.6 129Z" fill="#21082a" stroke="#21082a"></path><path d="M817.7 404L854.7 346L760.4 350Z" fill="#1e0924" stroke="#1e0924"></path><path d="M838.7 307L900 296L828.7 261Z" fill="#230730" stroke="#230730"></path><path d="M213.9 600L255.1 523L189.9 527Z" fill="#26053d" stroke="#26053d"></path><path d="M213.9 600L240.1 600L255.1 523Z" fill="#24005a" stroke="#24005a"></path><path d="M66.3 381L83.3 407L108.6 373Z" fill="#180a19" stroke="#180a19"></path><path d="M58.3 497L136.6 523L130.6 465Z" fill="#24005a" stroke="#24005a"></path><path d="M132.6 600L213.9 600L189.9 527Z" fill="#180a19" stroke="#180a19"></path><path d="M111.6 0L109.6 74L180.9 52Z" fill="#230730" stroke="#230730"></path><path d="M900 105L820.7 70L819.7 100Z" fill="#250636" stroke="#250636"></path><path d="M819.7 100L820.7 70L763.4 55Z" fill="#250636" stroke="#250636"></path><path d="M653.9 600L717.1 600L684.1 520Z" fill="#24005a" stroke="#24005a"></path><path d="M780.4 455L839.7 500L817.7 404Z" fill="#1c0a1e" stroke="#1c0a1e"></path><path d="M900 409L900 341L854.7 346Z" fill="#21082a" stroke="#21082a"></path><path d="M136.6 523L205.9 492L130.6 465Z" fill="#1e0924" stroke="#1e0924"></path><path d="M58.3 497L130.6 465L107.6 431Z" fill="#250636" stroke="#250636"></path><path d="M38.3 314L66.3 381L108.6 373Z" fill="#230730" stroke="#230730"></path><path d="M83.3 407L58.3 497L107.6 431Z" fill="#1e0924" stroke="#1e0924"></path><path d="M38.3 314L152.6 279L80.3 219Z" fill="#260152" stroke="#260152"></path><path d="M717.1 600L789.4 547L684.1 520Z" fill="#24005a" stroke="#24005a"></path><path d="M0 310L38.3 314L0 234Z" fill="#270344" stroke="#270344"></path><path d="M0 234L80.3 219L0 185Z" fill="#27024b" stroke="#27024b"></path><path d="M900 341L900 296L854.7 346Z" fill="#1e0924" stroke="#1e0924"></path><path d="M854.7 346L900 296L838.7 307Z" fill="#26053d" stroke="#26053d"></path><path d="M109.6 74L49.3 143L126.6 129Z" fill="#26053d" stroke="#26053d"></path><path d="M900 296L900 228L828.7 261Z" fill="#1e0924" stroke="#1e0924"></path><path d="M789.4 547L839.7 500L780.4 455Z" fill="#1e0924" stroke="#1e0924"></path><path d="M900 409L854.7 346L817.7 404Z" fill="#180a19" stroke="#180a19"></path><path d="M900 228L900 196L820.7 199Z" fill="#260152" stroke="#260152"></path><path d="M789.4 547L837.7 516L839.7 500Z" fill="#24005a" stroke="#24005a"></path><path d="M900 465L900 409L817.7 404Z" fill="#1c0a1e" stroke="#1c0a1e"></path><path d="M851.7 600L837.7 516L789.4 547Z" fill="#230730" stroke="#230730"></path><path d="M200.9 0L111.6 0L180.9 52Z" fill="#270344" stroke="#270344"></path><path d="M109.6 74L38.3 61L49.3 143Z" fill="#260152" stroke="#260152"></path><path d="M900 465L817.7 404L839.7 500Z" fill="#27024b" stroke="#27024b"></path><path d="M900 196L900 105L820.7 199Z" fill="#26053d" stroke="#26053d"></path><path d="M820.7 70L859.7 0L751.4 0Z" fill="#27024b" stroke="#27024b"></path><path d="M717.1 600L796.4 600L789.4 547Z" fill="#180a19" stroke="#180a19"></path><path d="M900 556L900 465L839.7 500Z" fill="#27024b" stroke="#27024b"></path><path d="M0 479L58.3 497L83.3 407Z" fill="#26053d" stroke="#26053d"></path><path d="M136.6 523L132.6 600L189.9 527Z" fill="#1c0a1e" stroke="#1c0a1e"></path><path d="M0 406L83.3 407L66.3 381Z" fill="#26053d" stroke="#26053d"></path><path d="M0 234L38.3 314L80.3 219Z" fill="#270344" stroke="#270344"></path><path d="M38.3 314L0 353L66.3 381Z" fill="#27024b" stroke="#27024b"></path><path d="M65.3 600L132.6 600L136.6 523Z" fill="#180a19" stroke="#180a19"></path><path d="M0 185L82.3 176L49.3 143Z" fill="#27024b" stroke="#27024b"></path><path d="M0 185L80.3 219L82.3 176Z" fill="#180a19" stroke="#180a19"></path><path d="M0 310L0 353L38.3 314Z" fill="#1c0a1e" stroke="#1c0a1e"></path><path d="M0 145L0 185L49.3 143Z" fill="#230730" stroke="#230730"></path><path d="M900 556L839.7 500L837.7 516Z" fill="#1c0a1e" stroke="#1c0a1e"></path><path d="M71.3 0L38.3 61L109.6 74Z" fill="#250636" stroke="#250636"></path><path d="M900 55L859.7 0L820.7 70Z" fill="#1e0924" stroke="#1e0924"></path><path d="M111.6 0L71.3 0L109.6 74Z" fill="#21082a" stroke="#21082a"></path><path d="M0 71L0 145L49.3 143Z" fill="#26053d" stroke="#26053d"></path><path d="M0 353L0 406L66.3 381Z" fill="#1c0a1e" stroke="#1c0a1e"></path><path d="M0 524L55.3 530L58.3 497Z" fill="#230730" stroke="#230730"></path><path d="M58.3 497L55.3 530L136.6 523Z" fill="#230730" stroke="#230730"></path><path d="M900 105L900 55L820.7 70Z" fill="#180a19" stroke="#180a19"></path><path d="M796.4 600L851.7 600L789.4 547Z" fill="#250636" stroke="#250636"></path><path d="M38.3 61L0 71L49.3 143Z" fill="#1c0a1e" stroke="#1c0a1e"></path><path d="M0 0L0 71L38.3 61Z" fill="#1e0924" stroke="#1e0924"></path><path d="M0 406L0 479L83.3 407Z" fill="#1e0924" stroke="#1e0924"></path><path d="M900 55L900 0L859.7 0Z" fill="#1e0924" stroke="#1e0924"></path><path d="M0 600L65.3 600L55.3 530Z" fill="#230730" stroke="#230730"></path><path d="M55.3 530L65.3 600L136.6 523Z" fill="#180a19" stroke="#180a19"></path><path d="M851.7 600L900 556L837.7 516Z" fill="#26053d" stroke="#26053d"></path><path d="M0 479L0 524L58.3 497Z" fill="#26053d" stroke="#26053d"></path><path d="M71.3 0L0 0L38.3 61Z" fill="#24005a" stroke="#24005a"></path><path d="M851.7 600L900 600L900 556Z" fill="#180a19" stroke="#180a19"></path><path d="M0 524L0 600L55.3 530Z" fill="#21082a" stroke="#21082a"></path></g></svg>